<svg width="128" height="128" viewBox="0 0 128 128" xmlns="http://www.w3.org/2000/svg">
  <defs>
    <linearGradient id="g" x1="0%" y1="0%" x2="100%" y2="100%">
      <stop offset="0%" stop-color="#6366F1" />
      <stop offset="100%" stop-color="#A855F7" />
    </linearGradient>
  </defs>
  <rect width="128" height="128" rx="32" fill="url(#g)"/>
  <path d="M36 64c0-17.673 14.327-32 32-32h20v16H68c-8.837 0-16 7.163-16 16s7.163 16 16 16h20v16H68c-17.673 0-32-14.327-32-32Z" fill="#fff" opacity="0.9"/>
  <path d="M48 64c0-11.046 8.954-20 20-20h20v12H68c-4.418 0-8 3.582-8 8s3.582 8 8 8h20v12H68c-11.046 0-20-8.954-20-20Z" fill="#EEF2FF"/>
</svg>
